<?xml version="1.0" encoding="UTF-8" standalone="no"?>
<svg
   xmlns:dc="http://purl.org/dc/elements/1.1/"
   xmlns:cc="http://creativecommons.org/ns#"
   xmlns:rdf="http://www.w3.org/1999/02/22-rdf-syntax-ns#"
   xmlns:svg="http://www.w3.org/2000/svg"
   xmlns="http://www.w3.org/2000/svg"
   id="svg1610"
   version="1.1"
   viewBox="0 0 100 20"
   height="20mm"
   width="100mm">
  <defs
     id="defs1604" />
  <metadata
     id="metadata1607">
    <rdf:RDF>
      <cc:Work
         rdf:about="">
        <dc:format>image/svg+xml</dc:format>
        <dc:type
           rdf:resource="http://purl.org/dc/dcmitype/StillImage" />
        <dc:title></dc:title>
      </cc:Work>
    </rdf:RDF>
  </metadata>
  <g
     transform="translate(0,-277)"
     id="layer1">
    <g
       transform="translate(-5.8373115,280.0198)"
       id="g5967">
      <path
         id="path706"
         style="fill:#362117;fill-opacity:1;fill-rule:nonzero;stroke:none;stroke-width:0.03527778"
         d="m 45.261576,8.5319549 -27.74953,-0.850194 27.74953,-0.8509 c 0,0 -0.17427,0.663928 -0.17427,0.852664 0,0.236008 0.17427,0.84843 0.17427,0.84843" />
      <path
         id="path708"
         style="fill:#362117;fill-opacity:1;fill-rule:nonzero;stroke:none;stroke-width:0.03527778"
         d="m 44.302376,8.0521779 -11.53336,-0.345017 11.53336,-0.345722 c 0,0 -0.097,0.269522 -0.097,0.346427 0,0.0956 0.097,0.344312 0.097,0.344312" />
      <path
         id="path710"
         style="fill:#362117;fill-opacity:1;fill-rule:nonzero;stroke:none;stroke-width:0.03527778"
         d="M 66.535133,8.6734189 94.162577,8.4307079 66.535133,6.9730299 c 0,0 0.26106,0.701675 0.26106,0.903111 0,0.223662 -0.26106,0.797278 -0.26106,0.797278" />
      <path
         id="path712"
         style="fill:#362117;fill-opacity:1;fill-rule:nonzero;stroke:none;stroke-width:0.03527778"
         d="m 67.555723,8.1484859 11.53371,-0.34537 -11.53371,-0.345016 c 0,0 0.0977,0.269169 0.0977,0.346075 0,0.0956 -0.0977,0.344311 -0.0977,0.344311" />
      <path
         id="path714"
         style="fill:#362117;fill-opacity:1;fill-rule:nonzero;stroke:none;stroke-width:0.03527778"
         d="m 47.434686,7.7050439 c 0,0.4953 -0.36301,0.89782 -0.81138,0.89782 -0.44874,0 -0.8121,-0.40252 -0.8121,-0.89782 0,-0.495653 0.36336,-0.897466 0.8121,-0.897466 0.44837,0 0.81138,0.401813 0.81138,0.897466" />
      <path
         id="path716"
         style="fill:#362117;fill-opacity:1;fill-rule:nonzero;stroke:none;stroke-width:0.03527778"
         d="m 64.397653,7.8468609 c 0,0.496005 0.36407,0.897819 0.81174,0.897819 0.44909,0 0.81245,-0.401814 0.81245,-0.897819 0,-0.495653 -0.36336,-0.897467 -0.81245,-0.897467 -0.44767,0 -0.81174,0.401814 -0.81174,0.897467" />
      <path
         id="path718"
         style="fill:#362117;fill-opacity:1;fill-rule:nonzero;stroke:none;stroke-width:0.03527778"
         d="m 54.096196,7.7512579 c 0.70837,-0.182386 0.61771,-1.125361 0.20249,-1.27388 -0.0776,-0.02822 -0.23142,0.05009 -0.24447,0.08396 -0.14182,0.37465 0.33901,0.167569 0.43144,0.36195 0.13371,0.287161 -0.16333,0.744361 -0.50306,0.744361 -0.16333,-0.0194 -0.30303,-0.09772 -0.39193,-0.200731 -0.51224,-0.502708 -0.34326,-1.508125 0.48295,-1.635478 0.55598,-0.08537 1.02976,0.410987 1.24848,0.915459 0.0205,0.04833 0.0381,0.09596 0.0543,0.142522 0.0406,-0.01764 0.0868,-0.02928 0.13935,-0.02928 0.0229,0 0.0441,0.0035 0.0649,0.0074 -0.2159,-1.227667 -1.78224,-1.867958 -2.35867,-0.474486 -0.28399,0.686505 0.24941,1.519766 0.87418,1.358194" />
      <path
         id="path720"
         style="fill:#362117;fill-opacity:1;fill-rule:nonzero;stroke:none;stroke-width:0.03527778"
         d="m 55.515766,7.6591829 c -0.031,0 -0.0593,-0.0039 -0.0864,-0.01023 -0.14605,0.614539 -0.76446,0.999419 -1.36489,1.078794 -0.0977,0.01305 -0.25788,0.0014 -0.35066,0 -0.53446,-0.04022 -0.91299,-0.25153 -1.11196,-0.465313 -0.24377,-0.261762 -0.81315,-1.048103 -0.36124,-1.6383 0.0124,-0.01623 -0.066,-0.09525 -0.145,-0.124178 -0.0406,-0.01482 -0.12911,-0.01446 -0.17109,-0.0053 -0.19297,0.04375 -0.27164,0.173214 -0.33302,0.286456 -0.23001,0.420511 0.25576,1.048102 0.62476,1.363486 -0.97542,-0.705909 -1.86301,-1.692275 -3.07833,-1.557514 -1.09467,0.121355 -1.88948,1.95968 -0.64347,2.483908 1.1564,0.486128 1.4612,-1.134181 0.65052,-1.170869 -0.29668,-0.01305 -0.27199,0.36195 -0.13864,0.33655 0.43956,-0.08467 0.60572,1.086202 -0.42898,0.696736 -0.61771,-0.232128 -0.62582,-1.18745 -0.34819,-1.6383 0.96203,-1.561747 2.73579,0.255764 3.42371,0.8001 0.57608,0.456141 1.20932,0.819855 1.90571,0.847372 0.15522,0.0053 0.38876,0.0053 0.58172,-0.04621 0.53552,-0.122414 1.08374,-0.461786 1.32222,-1.0414 0.0275,-0.06632 0.0494,-0.132292 0.0691,-0.197556 -0.006,3.44e-4 -0.0109,0.0018 -0.0159,0.0018" />
      <path
         id="path722"
         style="fill:#362117;fill-opacity:1;fill-rule:nonzero;stroke:none;stroke-width:0.03527778"
         d="m 51.206946,6.3662529 c 0,0.163688 -0.12383,0.296333 -0.27658,0.296333 -0.15311,0 -0.27729,-0.132645 -0.27729,-0.296333 0,-0.164042 0.12418,-0.296687 0.27729,-0.296687 0.15275,0 0.27658,0.132645 0.27658,0.296687" />
      <path
         id="path724"
         style="fill:#362117;fill-opacity:1;fill-rule:nonzero;stroke:none;stroke-width:0.03527778"
         d="m 60.925963,6.2325499 c 0,0.163336 -0.12347,0.296333 -0.27693,0.296333 -0.15275,0 -0.27693,-0.132997 -0.27693,-0.296333 0,-0.164042 0.12418,-0.296686 0.27693,-0.296686 0.15346,0 0.27693,0.132644 0.27693,0.296686" />
      <path
         id="path726"
         style="fill:#362117;fill-opacity:1;fill-rule:nonzero;stroke:none;stroke-width:0.03527778"
         d="m 56.229436,6.8474409 c 0.0572,0 0.10689,0.01235 0.14958,0.03316 0.0155,-0.0441 0.0321,-0.08819 0.0515,-0.133702 0.21873,-0.504473 0.69251,-1.000831 1.24848,-0.915459 0.82621,0.127353 0.99519,1.13277 0.48331,1.635478 -0.0885,0.103011 -0.2286,0.181328 -0.39229,0.200731 -0.33972,0 -0.63641,-0.4572 -0.50306,-0.744361 0.0924,-0.194381 0.57326,0.0127 0.43145,-0.36195 -0.0127,-0.03387 -0.16757,-0.112184 -0.24448,-0.08396 -0.41522,0.148519 -0.50588,1.091494 0.2025,1.27388 0.62477,0.161572 1.15852,-0.671689 0.87418,-1.358194 -0.57432,-1.387828 -2.13042,-0.75812 -2.3562,0.460375 0.0183,-0.0028 0.0356,-0.006 0.055,-0.006" />
      <path
         id="path728"
         style="fill:#362117;fill-opacity:1;fill-rule:nonzero;stroke:none;stroke-width:0.03527778"
         d="m 62.614713,6.5870909 c -1.21532,-0.134761 -2.10291,0.851606 -3.07799,1.557514 0.36866,-0.315383 0.85443,-0.942975 0.62513,-1.363486 -0.0621,-0.113241 -0.14076,-0.242711 -0.33373,-0.286455 -0.042,-0.0092 -0.13088,-0.0095 -0.1711,0.0053 -0.079,0.02893 -0.15734,0.10795 -0.14499,0.124177 0.45191,0.590198 -0.11783,1.376539 -0.36124,1.6383 -0.19897,0.213784 -0.577847,0.425097 -1.111957,0.465314 -0.0924,0.0014 -0.25329,0.01305 -0.35066,0 -0.60572,-0.08008 -1.22872,-0.470958 -1.36807,-1.093258 -0.0282,0.0071 -0.0582,0.01164 -0.0907,0.01164 -0.004,0 -0.007,-0.0011 -0.0109,-0.0011 0.0194,0.0695 0.042,0.139347 0.0716,0.209903 0.23847,0.579614 0.78669,0.918986 1.32221,1.0414 0.19297,0.0515 0.42651,0.0515 0.58173,0.04621 0.697087,-0.02752 1.329617,-0.391231 1.905697,-0.847372 0.68792,-0.544337 2.46204,-2.361847 3.42371,-0.8001 0.27799,0.45085 0.26917,1.406172 -0.34784,1.6383 -1.03505,0.389466 -0.86818,-0.781403 -0.42933,-0.696737 0.13335,0.0254 0.15769,-0.349602 -0.13864,-0.33655 -0.81068,0.03669 -0.50553,1.656998 0.65052,1.17087 1.24637,-0.524228 0.4505,-2.362553 -0.64346,-2.483908" />
      <path
         id="path730"
         style="fill:#362117;fill-opacity:1;fill-rule:nonzero;stroke:none;stroke-width:0.03527778"
         d="m 55.702386,8.0955689 c 0.0282,-0.157691 0.0931,-0.232128 0.15382,-0.23495 0.0653,-0.0032 0.14499,0.10407 0.16439,0.239889 0,0 0.018,0.255058 -0.16651,0.243064 -0.12912,-0.0088 -0.1711,-0.136172 -0.1517,-0.248003 z m 0.70803,0.589845 c -0.0667,-0.145698 -0.22649,-0.219781 -0.35349,-0.284339 -0.0226,-0.01164 -0.0529,-0.02363 -0.0829,-0.03634 0.0367,-0.02117 0.0681,-0.04868 0.0868,-0.08678 0.0875,-0.179564 -0.0279,-0.455789 -0.21131,-0.456142 -0.13123,0 -0.28822,0.282223 -0.20214,0.458259 0.0183,0.03845 0.0494,0.06597 0.0864,0.08678 -0.03,0.01305 -0.0603,0.02505 -0.0833,0.03669 -0.127,0.06491 -0.2861,0.138641 -0.35278,0.283986 -0.0734,0.160161 0.11924,0.252236 0.28646,0.222603 0.17003,-0.03069 0.18273,-0.239889 0.0459,-0.326673 -0.0399,-0.02611 -0.15099,0.06421 -0.1076,0.09172 0.042,0.02752 0.0744,0.05468 0.0829,0.111831 0.0116,0.07585 -0.10019,0.147814 -0.22719,0.04621 -0.072,-0.05715 0.0444,-0.192617 0.10089,-0.238125 0.0949,-0.07761 0.2413,-0.208139 0.35208,-0.208139 h 0.0406 c 0.11077,0 0.26246,0.127705 0.35701,0.205316 0.0564,0.04621 0.17568,0.202142 0.10336,0.257881 -0.0194,0.01552 -0.25435,0.06068 -0.2293,-0.06421 0.0109,-0.0568 0.0402,-0.08537 0.0833,-0.112183 0.0427,-0.02787 -0.0677,-0.118181 -0.1083,-0.09278 -0.13618,0.08714 -0.12418,0.29598 0.0462,0.326319 0.16686,0.03034 0.35947,-0.06174 0.28645,-0.221897" />
      <path
         id="path732"
         style="fill:#362117;fill-opacity:1;fill-rule:nonzero;stroke:none;stroke-width:0.03527778"
         d="m 56.510256,7.1508299 c 0,0.08608 -0.0727,0.144639 -0.16228,0.144639 h -0.97437 c -0.0896,0 -0.16264,-0.05856 -0.16264,-0.144639 v 0 c 0,-0.08572 0.073,-0.144286 0.16264,-0.144286 h 0.97437 c 0.0896,0 0.16228,0.05856 0.16228,0.144286 v 0" />
      <path
         id="path734"
         style="fill:#362117;fill-opacity:1;fill-rule:nonzero;stroke:none;stroke-width:0.03527778"
         d="m 55.954276,6.7169139 h -0.18733 l -0.32738,-1.156406 h 0.85443 l -0.33972,1.156406" />
      <path
         id="path736"
         style="fill:#362117;fill-opacity:1;fill-rule:nonzero;stroke:none;stroke-width:0.03527778"
         d="m 56.145476,5.1329409 c 0,0.184503 -0.13582,0.334434 -0.30268,0.334434 -0.16722,0 -0.30304,-0.149931 -0.30304,-0.334434 0,-0.184855 0.13582,-0.334433 0.30304,-0.334433 0.16686,0 0.30268,0.149578 0.30268,0.334433" />
    </g>
  </g>
</svg>
